<svg width="29" height="29" viewBox="0 0 29 29" fill="none" xmlns="http://www.w3.org/2000/svg">
<g id="&#240;&#159;&#166;&#134; emoji &#34;instagram emoji&#34;">
<g id="Group 1">
<path id="Vector" d="M20.5635 1H8.1126C4.09499 1 0.838028 4.25696 0.838028 8.27457V20.7254C0.838028 24.743 4.09499 28 8.1126 28H20.5635C24.5811 28 27.838 24.743 27.838 20.7254V8.27457C27.8381 4.25696 24.5811 1 20.5635 1Z" stroke="#E1E1E1" stroke-width="1.14574" stroke-miterlimit="10"/>
<path id="Vector_2" d="M14.3381 21.0173C17.9374 21.0173 20.8553 18.0994 20.8553 14.5C20.8553 10.9007 17.9374 7.98277 14.3381 7.98277C10.7387 7.98277 7.8208 10.9007 7.8208 14.5C7.8208 18.0994 10.7387 21.0173 14.3381 21.0173Z" stroke="#E1E1E1" stroke-width="1.14574" stroke-miterlimit="10"/>
<path id="Vector_3" d="M22.2518 7.98283C23.0231 7.98283 23.6484 7.35756 23.6484 6.58626C23.6484 5.81496 23.0231 5.1897 22.2518 5.1897C21.4805 5.1897 20.8553 5.81496 20.8553 6.58626C20.8553 7.35756 21.4805 7.98283 22.2518 7.98283Z" fill="#E1E1E1"/>
</g>
</g>
</svg>
