<svg width="32" height="27" viewBox="0 0 32 27" fill="none" xmlns="http://www.w3.org/2000/svg">
<g id="&#240;&#159;&#166;&#134; icon &#34;chat bubble icon&#34;">
<g id="Group 2">
<path id="Vector" d="M28.3099 21.1785C30.2388 19.6485 31.331 17.6092 31.331 15.4929C31.331 13.2438 30.148 11.1404 27.9997 9.56975C25.909 8.04167 23.1415 7.2 20.2069 7.2C17.2722 7.2 14.5048 8.04167 12.4143 9.56987C10.2661 11.1404 9.08304 13.2438 9.08304 15.4929C9.08304 17.742 10.2661 19.8454 12.4143 21.416C14.5048 22.9442 17.2722 23.7858 20.2069 23.7858C20.5979 23.7858 20.9913 23.7705 21.3815 23.7399L22.048 24.2541C24.3443 26.025 27.2809 26.9999 30.3194 27H31.3307V25.0843L31.0345 24.8208C29.8661 23.7779 28.9403 22.5402 28.3099 21.1785ZM23.3727 22.8937L22.0352 21.8621L21.5892 21.9107C21.1306 21.9606 20.6689 21.9857 20.2069 21.9857C15.1885 21.9857 11.1056 19.073 11.1056 15.4929C11.1056 11.9127 15.1885 9 20.2069 9C25.2252 9 29.3082 11.9127 29.3082 15.4929C29.3082 17.2766 28.3083 18.9418 26.4927 20.1818L25.9103 20.5795L26.179 21.2565C26.7298 22.6391 27.5393 23.9288 28.5733 25.0712C26.6476 24.7851 24.848 24.0316 23.3727 22.8937Z" fill="#E1E1E1"/>
<path id="Vector_2" d="M3.78563 16.958C4.73224 15.8916 5.47548 14.694 5.98562 13.413L6.25234 12.7394L5.67042 12.3419C3.95836 11.1727 3.01549 9.60345 3.01549 7.92321C3.01549 4.54686 6.87148 1.8 11.6112 1.8C15.098 1.8 18.1064 3.28669 19.4533 5.41688C19.7034 5.40608 19.9545 5.4 20.2069 5.4C20.7136 5.4 21.2158 5.42188 21.7132 5.46564C21.1928 4.26555 20.2888 3.17003 19.0461 2.26159C17.0512 0.803194 14.4111 0 11.6112 0C8.81126 0 6.17112 0.803194 4.17616 2.26159C2.12344 3.76228 0.992981 5.77294 0.992981 7.92321C0.992981 9.93696 2.02648 11.8773 3.85294 13.3369C3.25689 14.6135 2.38596 15.7739 1.28922 16.7529L0.992981 17.0165V18.9H2.00424C3.87425 18.8998 5.71853 18.5122 7.39114 17.768C7.20773 17.1493 7.10027 16.5147 7.07063 15.8754C6.05544 16.405 4.94349 16.7714 3.78563 16.958Z" fill="#E1E1E1"/>
</g>
</g>
</svg>
