<svg width="37" height="29" viewBox="0 0 37 29" fill="none" xmlns="http://www.w3.org/2000/svg">
<g id="Group">
<path id="Vector" d="M35.2686 5.21614C34.8661 3.55651 33.6803 2.24962 32.1743 1.80608C29.4449 1 18.5 1 18.5 1C18.5 1 7.5552 1 4.82572 1.80608C3.31986 2.24962 2.13383 3.55651 1.73137 5.21614C1 8.22409 1 14.5 1 14.5C1 14.5 1 20.7758 1.73137 23.7841C2.13383 25.4435 3.31986 26.7504 4.82572 27.1941C7.5552 28 18.5 28 18.5 28C18.5 28 29.4449 28 32.1743 27.1941C33.6803 26.7504 34.8661 25.4435 35.2686 23.7841C36 20.7758 36 14.5 36 14.5C36 14.5 36 8.22409 35.2686 5.21614Z" stroke="#E1E1E1" stroke-width="0.921105" stroke-miterlimit="10"/>
<path id="Vector_2" d="M14.9204 20.198L24.0682 14.5003L14.9204 8.80196V20.198Z" stroke="#E1E1E1" stroke-width="0.921105" stroke-miterlimit="10" stroke-linecap="round" stroke-linejoin="round"/>
</g>
</svg>
